<?xml version="1.0" encoding="utf-8"?>
<!-- Generator: Adobe Illustrator 19.0.0, SVG Export Plug-In . SVG Version: 6.00 Build 0)  -->
<svg version="1.1" id="Layer_1" xmlns="http://www.w3.org/2000/svg" xmlns:xlink="http://www.w3.org/1999/xlink" x="0px" y="0px"
	 viewBox="0 0 30 30" style="enable-background:new 0 0 30 30;" xml:space="preserve">
<style type="text/css">
	.st0{fill:#FFFFFF;}
</style>
<g id="XMLID_1_">
	<g id="XMLID_27_">
		<path id="XMLID_31_" class="st0" d="M3,13.8c4.3-3.9,8.6-7.7,13-11.6c1.2-1.1-0.6-2.8-1.8-1.8C9.8,4.3,5.5,8.1,1.2,12
			C0,13.1,1.8,14.8,3,13.8L3,13.8z"/>
	</g>
</g>
<g id="XMLID_3_">
	<g id="XMLID_21_">
		<path id="XMLID_25_" class="st0" d="M28.9,12c-4.3-3.9-8.6-7.7-13-11.6c-1.2-1.1-3,0.7-1.8,1.8c4.3,3.9,8.6,7.7,13,11.6
			C28.3,14.8,30.1,13.1,28.9,12L28.9,12z"/>
	</g>
</g>
<g id="XMLID_5_">
	<g id="XMLID_15_">
		<path id="XMLID_19_" class="st0" d="M24.3,15.1c0,4.3,0,8.6,0,12.9c0.4-0.4,0.8-0.8,1.3-1.3c-6.9,0-13.8,0-20.7,0
			c0.4,0.4,0.8,0.8,1.3,1.3c0-4.3,0-8.6,0-12.9c0-1.6-2.5-1.6-2.5,0c0,4.3,0,8.6,0,12.9c0,0.7,0.6,1.3,1.3,1.3c6.9,0,13.8,0,20.7,0
			c0.7,0,1.3-0.6,1.3-1.3c0-4.3,0-8.6,0-12.9C26.8,13.5,24.3,13.5,24.3,15.1L24.3,15.1z"/>
	</g>
</g>
</svg>
