<?xml version="1.0" encoding="utf-8"?>
<!-- Generator: Adobe Illustrator 19.0.0, SVG Export Plug-In . SVG Version: 6.00 Build 0)  -->
<svg version="1.1" id="Layer_1" xmlns="http://www.w3.org/2000/svg" xmlns:xlink="http://www.w3.org/1999/xlink" x="0px" y="0px"
	 viewBox="0 0 30 30" style="enable-background:new 0 0 30 30;" xml:space="preserve">
<style type="text/css">
	.st0{fill:none;stroke:#000000;stroke-miterlimit:10;}
	.st1{fill:none;stroke:#FFFFFF;stroke-width:2.5;stroke-miterlimit:10;}
</style>
<path id="XMLID_2_" class="st0" d="M-7.5,0.1"/>
<g id="XMLID_1_">
	<g id="XMLID_7_">
	</g>
	<g id="XMLID_8_">
		<path id="XMLID_16_" class="st1" d="M25.9,9.2c1.1,1.9,1.8,4.1,1.8,6.5c0,2.7-0.9,5.3-2.4,7.3c-1.9,2.6-4.8,4.5-8.1,5.1
			c-0.7,0.1-1.4,0.2-2.1,0.2c-5.7,0-10.5-3.7-12-8.9c-0.4-1.2-0.6-2.4-0.6-3.7c0-2.7,0.8-5.2,2.3-7.2c2.3-3.3,6-5.4,10.3-5.4
			c0.4,0,0.8,0,1.1,0.1C20.4,3.5,23.9,5.8,25.9,9.2z"/>
		<path id="XMLID_15_" class="st1" d="M5,8.6c0.5,0.1,1,0.6,1.1,1.1c0.1,0.3,0.1,0.8,0.4,1C7,11,7.7,10.5,8.1,10.9
			c0.2,0.2,0.2,0.6,0.3,0.8c0.2,0.3,0.6,0.4,0.9,0.6c0.3,0.1,0.7,0.4,0.7,0.8c0.3,0.1,0.7-0.1,0.9-0.4c0.3-0.3,0.4-0.6,0.8-0.8
			c0.7-0.4,1.8,0.3,2.4-0.2c0.6-0.4,0.4-1.5,1-2c0.1-0.1,0.2-0.2,0.3-0.3c0.1-0.2-0.1-0.3-0.2-0.4C15.1,8.6,15,8.2,15,7.8
			c0-0.8,0.2-1.6,0.6-2.3c0.3-0.6,0.8-1.2,0.7-1.9"/>
		<path id="XMLID_14_" class="st1" d="M25.4,23C25.4,23,25.4,23,25.4,23c-0.3,0.2-0.7,0.2-1,0c-0.3-0.1-0.5-0.4-0.8-0.6
			c-0.3-0.3-0.5-0.6-0.8-0.8c-0.1-0.1-0.2-0.2-0.3-0.3c-0.3-0.6,0.2-1.3,0-1.9c-0.1-0.5-0.6-0.7-0.9-1.1c-0.4-0.5-0.4-1.3-0.7-1.9
			c-0.2-0.4-0.7-0.8-1-1.1c-0.3-0.4-0.6-0.9-0.4-1.4c0.1-0.2,0.3-0.4,0.5-0.6c0.6-0.5,1.2-0.9,1.9-1.2c0.3-0.1,0.6-0.2,0.8-0.3
			c0.5-0.3,0.7-0.9,1.1-1.4c0.5-0.5,1.1-0.7,1.7-0.9"/>
		<path id="XMLID_13_" class="st1" d="M3.4,19.3c0.7,0.1,1.3-0.4,2-0.4c1.2-0.1,2.5,0.9,3.6,0.4c0.3-0.1,0.5-0.4,0.8-0.4
			c0.4,0,0.7,0.3,0.8,0.7c0.1,0.3,0.2,0.7,0.4,1c0.4,0.5,1.2,0.4,1.7,0.1c0.5-0.3,1-0.8,1.5-1.1c0.4-0.2,0.9-0.3,1-0.7
			c0.2-0.7-0.8-1.2-0.6-1.9c0.1-0.5,0.9-0.6,1.1-0.1c0.1,0.1,0.1,0.3,0.2,0.4c0.1,0.3,0.4,0.5,0.7,0.8c0.3,0.2,0.5,0.5,0.5,0.9
			c0,0.3-0.3,0.5-0.4,0.7c-0.4,0.8,0.1,1.8-0.4,2.5c-0.1,0.1-0.2,0.3-0.2,0.4c0,0.2,0.1,0.5,0.1,0.7c0,0.3-0.2,0.6-0.5,0.9
			c-0.3,0.2-0.5,0.5-0.7,0.8c-0.1,0.3-0.1,0.8,0.2,0.9c0.5-0.2,1.2,0.3,1.1,0.9c0.2,0.1,0.4,0.1,0.5,0.2c0.2,0.3,0.4,0.6,0.4,0.9"/>
	</g>
</g>
</svg>
