<svg width="738" height="120" viewBox="0 0 738 120" fill="none" xmlns="http://www.w3.org/2000/svg">
<g clip-path="url(#clip0_1_176)">
<path fill-rule="evenodd" clip-rule="evenodd" d="M382.461 118.227H354.382V29.5566H382.461V118.227ZM383.2 20.6897H353.643V0H383.2V20.6897ZM204.852 49.9507C220.074 49.9507 221.699 52.3153 221.699 73.8916C221.699 95.468 220.074 97.8325 204.852 97.8325C189.631 97.8325 188.005 95.468 188.005 73.8916C188.005 52.3153 189.631 49.9507 204.852 49.9507ZM158.448 73.8916C158.448 110.837 167.759 120 204.852 120C241.946 120 251.256 110.837 251.256 73.8916C251.256 36.9458 241.946 27.7832 204.852 27.7832C167.759 27.7832 158.448 36.9458 158.448 73.8916ZM348.42 29.5566H320.489L301.13 97.5369H300.243L282.657 29.5566H253.543L278.075 118.227H321.376L348.42 29.5566ZM481.447 90H451.89C451.89 97.3892 448.935 99.3103 437.26 99.3103C425.142 99.3103 422.334 97.3892 421.743 81.8719H482.186V68.1281C481.447 35.9113 472.137 27.7832 437.112 27.7832C401.053 27.7832 392.038 36.9458 392.038 73.8916C392.038 110.837 401.053 120 437.112 120C471.989 120 480.856 113.941 481.447 90ZM421.89 61.1823C422.925 49.9507 426.324 48.4729 437.26 48.4729C450.265 48.4729 452.334 49.803 452.629 61.1823H421.89ZM519.12 85.5665C519.12 92.3645 520.302 93.1034 530.795 93.1034V118.227H514.687C495.623 118.227 490.894 113.35 491.041 93.9901V0H519.12V85.5665ZM540.347 118.227H568.426V29.5566H540.347V118.227ZM539.608 20.6897H569.164V0H539.608V20.6897ZM606.081 88.5222V90.4433C606.081 98.4236 607.707 99.3103 622.781 99.3103C637.116 99.3103 638.742 98.5714 638.742 92.5123C638.742 88.0788 634.604 86.1576 617.756 83.0542C587.609 77.1429 580.072 71.5271 580.072 54.532C580.072 33.1034 588.791 27.7832 623.52 27.7832C657.51 27.7832 666.081 33.8424 666.081 57.7833V60.4433H638.003V57.7833C638.003 49.3596 636.525 48.4729 623.52 48.4729C610.958 48.4729 609.628 49.2118 609.628 55.4187C609.628 59.5566 612.141 60.8867 621.894 62.3645C658.988 68.4236 668.298 74.9261 668.298 94.5813C668.298 114.975 659.283 120 623.52 120C587.165 120 578.003 114.089 578.003 90.4433V88.5222H606.081ZM737.741 93.1034H722.815C713.653 93.1034 712.618 91.9212 712.618 81.133V53.202H736.263V29.5566H712.618V10.6404H686.017V29.5566H675.672V53.202H684.539V88.3744C684.539 112.315 691.633 118.227 720.007 118.227H737.741V93.1034ZM52.2221 118.227L34.9315 32.5123V2.95566H59.1679L76.4586 88.67H77.6408L95.0793 2.95566H149.611V118.227H118.577V32.5123H117.69L100.252 118.227H52.2221ZM0 2.94136H10.3349V7.74675H20.669V2.94206H31.0038V7.74675H31.0047V17.3535H31.0038V26.9625H31.0047V36.5693H31.0038V46.1872H31.0047V55.794H31.0038V65.397H31.0047V75.0038H31.0038V84.6158H31.0047V94.2226H31.0038V103.835H31.0047V113.441H31.0038V118.247H20.669V113.441H10.3349V118.247H0V2.94136ZM10.3349 26.9625V17.3535H20.669V26.9625H10.3349ZM20.669 36.5693H10.3349V46.1872H20.669V36.5693ZM10.3349 65.397V55.794H20.669V65.397H10.3349ZM20.669 75.0038H10.3349V84.6158H20.669V75.0038ZM10.3349 103.835V94.2226H20.669V103.835H10.3349Z" fill="#F33F3F"/>
</g>
<defs>
<clipPath id="clip0_1_176">
<rect width="737.741" height="120" fill="white"/>
</clipPath>
</defs>
</svg>
